<mxfile host="app.diagrams.net" modified="2023-11-15T23:24:45.913Z" agent="Mozilla/5.0 (Windows NT 10.0; Win64; x64) AppleWebKit/537.36 (KHTML, like Gecko) Chrome/119.0.0.0 Safari/537.36" etag="j2Y3QQ1olK5WbgZrF9Kk" version="22.1.1" type="device">
  <diagram name="Page-1" id="WRmtu_faVpJEufLhUKHR">
    <mxGraphModel dx="2493" dy="1771" grid="1" gridSize="10" guides="1" tooltips="1" connect="1" arrows="1" fold="1" page="1" pageScale="1" pageWidth="850" pageHeight="1100" math="0" shadow="0">
      <root>
        <mxCell id="0" />
        <mxCell id="1" parent="0" />
        <mxCell id="jAzHd7rq2cDCX4-PtLzW-10" style="edgeStyle=orthogonalEdgeStyle;rounded=0;orthogonalLoop=1;jettySize=auto;html=1;entryX=1;entryY=0.5;entryDx=0;entryDy=0;shadow=1;" parent="1" edge="1">
          <mxGeometry relative="1" as="geometry">
            <Array as="points">
              <mxPoint x="525" y="255" />
              <mxPoint x="525" y="10" />
            </Array>
            <mxPoint x="540" y="255.0588235294117" as="sourcePoint" />
            <mxPoint x="392.5" y="10" as="targetPoint" />
          </mxGeometry>
        </mxCell>
        <mxCell id="jAzHd7rq2cDCX4-PtLzW-11" value="ARM API .set_joint_positions" style="edgeLabel;html=1;align=center;verticalAlign=middle;resizable=0;points=[];shadow=1;" parent="jAzHd7rq2cDCX4-PtLzW-10" vertex="1" connectable="0">
          <mxGeometry x="0.1733" y="-2" relative="1" as="geometry">
            <mxPoint as="offset" />
          </mxGeometry>
        </mxCell>
        <mxCell id="jAzHd7rq2cDCX4-PtLzW-14" value="&lt;font style=&quot;font-size: 18px;&quot;&gt;&lt;b&gt;Desktop&lt;/b&gt;&lt;/font&gt;" style="rounded=1;whiteSpace=wrap;html=1;verticalAlign=top;shadow=1;" parent="1" vertex="1">
          <mxGeometry x="-430" y="-150" width="1080" height="510" as="geometry" />
        </mxCell>
        <mxCell id="jAzHd7rq2cDCX4-PtLzW-15" style="edgeStyle=orthogonalEdgeStyle;rounded=0;orthogonalLoop=1;jettySize=auto;html=1;entryX=0.5;entryY=0;entryDx=0;entryDy=0;shadow=0;" parent="1" source="jAzHd7rq2cDCX4-PtLzW-16" target="jAzHd7rq2cDCX4-PtLzW-17" edge="1">
          <mxGeometry relative="1" as="geometry" />
        </mxCell>
        <mxCell id="jAzHd7rq2cDCX4-PtLzW-16" value="U2D2" style="rounded=1;whiteSpace=wrap;html=1;shadow=1;" parent="1" vertex="1">
          <mxGeometry x="-332.5" y="410" width="80" height="30" as="geometry" />
        </mxCell>
        <mxCell id="jAzHd7rq2cDCX4-PtLzW-17" value="Student 1 Dynamixels" style="rounded=1;whiteSpace=wrap;html=1;shadow=1;" parent="1" vertex="1">
          <mxGeometry x="-352.5" y="480" width="120" height="60" as="geometry" />
        </mxCell>
        <mxCell id="jAzHd7rq2cDCX4-PtLzW-18" value="Student 2 Dynamixels" style="rounded=1;whiteSpace=wrap;html=1;shadow=1;" parent="1" vertex="1">
          <mxGeometry x="-130" y="480" width="120" height="60" as="geometry" />
        </mxCell>
        <mxCell id="jAzHd7rq2cDCX4-PtLzW-35" style="edgeStyle=orthogonalEdgeStyle;rounded=0;orthogonalLoop=1;jettySize=auto;html=1;exitX=0.5;exitY=1;exitDx=0;exitDy=0;entryX=0.5;entryY=0;entryDx=0;entryDy=0;shadow=0;" parent="1" source="jAzHd7rq2cDCX4-PtLzW-19" target="jAzHd7rq2cDCX4-PtLzW-30" edge="1">
          <mxGeometry relative="1" as="geometry" />
        </mxCell>
        <mxCell id="jAzHd7rq2cDCX4-PtLzW-19" value="&lt;b&gt;hawaii_control: student 1&lt;/b&gt;" style="rounded=1;whiteSpace=wrap;html=1;verticalAlign=top;shadow=1;" parent="1" vertex="1">
          <mxGeometry x="-377.5" y="60" width="170" height="110" as="geometry" />
        </mxCell>
        <mxCell id="jAzHd7rq2cDCX4-PtLzW-20" value="&lt;div&gt;&lt;b&gt;hawaii_control.launch&lt;/b&gt;&lt;/div&gt;&lt;div&gt;&lt;ul&gt;&lt;li style=&quot;text-align: left;&quot;&gt;starts up sdk&lt;/li&gt;&lt;li style=&quot;text-align: left;&quot;&gt;loads URDF&lt;/li&gt;&lt;/ul&gt;&lt;/div&gt;" style="rounded=1;whiteSpace=wrap;html=1;verticalAlign=top;shadow=1;" parent="1" vertex="1">
          <mxGeometry x="-367.5" y="90" width="150" height="70" as="geometry" />
        </mxCell>
        <mxCell id="jAzHd7rq2cDCX4-PtLzW-28" style="edgeStyle=orthogonalEdgeStyle;rounded=0;orthogonalLoop=1;jettySize=auto;html=1;entryX=0.5;entryY=0;entryDx=0;entryDy=0;shadow=0;" parent="1" source="jAzHd7rq2cDCX4-PtLzW-22" target="jAzHd7rq2cDCX4-PtLzW-19" edge="1">
          <mxGeometry relative="1" as="geometry" />
        </mxCell>
        <mxCell id="jAzHd7rq2cDCX4-PtLzW-29" style="edgeStyle=orthogonalEdgeStyle;rounded=0;orthogonalLoop=1;jettySize=auto;html=1;exitX=0.5;exitY=1;exitDx=0;exitDy=0;entryX=0.5;entryY=0;entryDx=0;entryDy=0;shadow=0;" parent="1" source="jAzHd7rq2cDCX4-PtLzW-22" target="jAzHd7rq2cDCX4-PtLzW-60" edge="1">
          <mxGeometry relative="1" as="geometry">
            <mxPoint x="-72.5" y="130" as="targetPoint" />
          </mxGeometry>
        </mxCell>
        <mxCell id="jAzHd7rq2cDCX4-PtLzW-22" value="&lt;b&gt;hawaii_teleop&lt;/b&gt;" style="rounded=1;whiteSpace=wrap;html=1;verticalAlign=top;fillColor=#CCFFCC;shadow=1;" parent="1" vertex="1">
          <mxGeometry x="-290" y="-120" width="220" height="130" as="geometry" />
        </mxCell>
        <mxCell id="jAzHd7rq2cDCX4-PtLzW-24" value="&lt;div&gt;&lt;b&gt;hawaii_teleop.launch&lt;/b&gt;&lt;/div&gt;&lt;div align=&quot;left&quot;&gt;&lt;ul&gt;&lt;li&gt;starts communication with 2 arms and 4 cameras&lt;/li&gt;&lt;/ul&gt;&lt;/div&gt;" style="rounded=1;whiteSpace=wrap;html=1;verticalAlign=top;horizontal=1;shadow=1;" parent="1" vertex="1">
          <mxGeometry x="-275" y="-80" width="190" height="70" as="geometry" />
        </mxCell>
        <mxCell id="jAzHd7rq2cDCX4-PtLzW-40" style="edgeStyle=orthogonalEdgeStyle;rounded=0;orthogonalLoop=1;jettySize=auto;html=1;exitX=0.5;exitY=1;exitDx=0;exitDy=0;entryX=0.5;entryY=0;entryDx=0;entryDy=0;strokeColor=#0000CC;shadow=1;strokeWidth=3;" parent="1" source="jAzHd7rq2cDCX4-PtLzW-30" target="jAzHd7rq2cDCX4-PtLzW-16" edge="1">
          <mxGeometry relative="1" as="geometry" />
        </mxCell>
        <mxCell id="jAzHd7rq2cDCX4-PtLzW-30" value="&lt;div&gt;&lt;b&gt;interbotix_xs_sdk&lt;/b&gt;&lt;/div&gt;" style="rounded=1;whiteSpace=wrap;html=1;align=center;verticalAlign=top;shadow=1;" parent="1" vertex="1">
          <mxGeometry x="-390" y="240" width="195" height="90" as="geometry" />
        </mxCell>
        <mxCell id="jAzHd7rq2cDCX4-PtLzW-31" value="&lt;div&gt;&lt;b style=&quot;background-color: initial;&quot;&gt;interbotix_xs_driver&lt;/b&gt;&lt;br&gt;&lt;/div&gt;&lt;div&gt;control the DYNAMIXEL servos&lt;/div&gt;" style="rounded=1;whiteSpace=wrap;html=1;movable=1;resizable=1;rotatable=1;deletable=1;editable=1;locked=0;connectable=1;shadow=1;" parent="1" vertex="1">
          <mxGeometry x="-380" y="270" width="175" height="50" as="geometry" />
        </mxCell>
        <mxCell id="jAzHd7rq2cDCX4-PtLzW-32" value="&lt;div&gt;&lt;b&gt;interbotix_xs_sdk&lt;/b&gt;&lt;/div&gt;" style="rounded=1;whiteSpace=wrap;html=1;align=center;verticalAlign=top;shadow=1;" parent="1" vertex="1">
          <mxGeometry x="-167.5" y="240" width="195" height="90" as="geometry" />
        </mxCell>
        <mxCell id="jAzHd7rq2cDCX4-PtLzW-33" value="&lt;div&gt;&lt;b style=&quot;background-color: initial;&quot;&gt;interbotix_xs_driver&lt;/b&gt;&lt;br&gt;&lt;/div&gt;&lt;div&gt;control the DYNAMIXEL servos&lt;/div&gt;" style="rounded=1;whiteSpace=wrap;html=1;movable=1;resizable=1;rotatable=1;deletable=1;editable=1;locked=0;connectable=1;shadow=1;" parent="1" vertex="1">
          <mxGeometry x="-157.5" y="270" width="175" height="50" as="geometry" />
        </mxCell>
        <mxCell id="jAzHd7rq2cDCX4-PtLzW-38" style="edgeStyle=orthogonalEdgeStyle;rounded=0;orthogonalLoop=1;jettySize=auto;html=1;exitX=0.5;exitY=1;exitDx=0;exitDy=0;entryX=0.5;entryY=0;entryDx=0;entryDy=0;shadow=0;" parent="1" source="jAzHd7rq2cDCX4-PtLzW-37" target="jAzHd7rq2cDCX4-PtLzW-18" edge="1">
          <mxGeometry relative="1" as="geometry" />
        </mxCell>
        <mxCell id="jAzHd7rq2cDCX4-PtLzW-37" value="U2D2" style="rounded=1;whiteSpace=wrap;html=1;shadow=1;" parent="1" vertex="1">
          <mxGeometry x="-110" y="410" width="80" height="30" as="geometry" />
        </mxCell>
        <mxCell id="jAzHd7rq2cDCX4-PtLzW-67" style="edgeStyle=orthogonalEdgeStyle;rounded=0;orthogonalLoop=1;jettySize=auto;html=1;entryX=0.5;entryY=1;entryDx=0;entryDy=0;strokeColor=#0000CC;strokeWidth=3;exitX=0.5;exitY=0;exitDx=0;exitDy=0;" parent="1" source="jAzHd7rq2cDCX4-PtLzW-42" target="jAzHd7rq2cDCX4-PtLzW-76" edge="1">
          <mxGeometry relative="1" as="geometry">
            <mxPoint x="355" y="330" as="targetPoint" />
            <Array as="points">
              <mxPoint x="265" y="410" />
              <mxPoint x="435" y="410" />
            </Array>
          </mxGeometry>
        </mxCell>
        <mxCell id="jAzHd7rq2cDCX4-PtLzW-42" value="&lt;b&gt;Honolulu Board&lt;/b&gt;&lt;br&gt;&lt;ul style=&quot;&quot;&gt;&lt;li style=&quot;&quot;&gt;Gets teacher joint states&amp;nbsp;&lt;/li&gt;&lt;/ul&gt;" style="rounded=1;whiteSpace=wrap;html=1;shadow=1;" parent="1" vertex="1">
          <mxGeometry x="170" y="430" width="190" height="60" as="geometry" />
        </mxCell>
        <mxCell id="jAzHd7rq2cDCX4-PtLzW-43" value="" style="edgeStyle=orthogonalEdgeStyle;rounded=0;orthogonalLoop=1;jettySize=auto;html=1;shadow=0;strokeColor=#FF8000;strokeWidth=3;" parent="1" source="jAzHd7rq2cDCX4-PtLzW-44" target="jAzHd7rq2cDCX4-PtLzW-42" edge="1">
          <mxGeometry relative="1" as="geometry">
            <mxPoint x="260" y="690" as="targetPoint" />
          </mxGeometry>
        </mxCell>
        <mxCell id="jAzHd7rq2cDCX4-PtLzW-44" value="Teacher 1 Encoders" style="rounded=1;whiteSpace=wrap;html=1;shadow=1;" parent="1" vertex="1">
          <mxGeometry x="130" y="530" width="120" height="60" as="geometry" />
        </mxCell>
        <mxCell id="jAzHd7rq2cDCX4-PtLzW-46" style="edgeStyle=orthogonalEdgeStyle;rounded=0;orthogonalLoop=1;jettySize=auto;html=1;exitX=0.5;exitY=0;exitDx=0;exitDy=0;entryX=0.5;entryY=1;entryDx=0;entryDy=0;shadow=0;strokeColor=#FF8000;fontSize=11;strokeWidth=3;" parent="1" source="jAzHd7rq2cDCX4-PtLzW-45" target="jAzHd7rq2cDCX4-PtLzW-42" edge="1">
          <mxGeometry relative="1" as="geometry" />
        </mxCell>
        <mxCell id="jAzHd7rq2cDCX4-PtLzW-45" value="Teacher 2 Encoders" style="rounded=1;whiteSpace=wrap;html=1;shadow=1;" parent="1" vertex="1">
          <mxGeometry x="280" y="530" width="120" height="60" as="geometry" />
        </mxCell>
        <mxCell id="jAzHd7rq2cDCX4-PtLzW-64" style="edgeStyle=orthogonalEdgeStyle;rounded=0;orthogonalLoop=1;jettySize=auto;html=1;exitX=0;exitY=0.5;exitDx=0;exitDy=0;entryX=1;entryY=0.5;entryDx=0;entryDy=0;shadow=0;" parent="1" source="jAzHd7rq2cDCX4-PtLzW-47" target="jAzHd7rq2cDCX4-PtLzW-32" edge="1">
          <mxGeometry relative="1" as="geometry" />
        </mxCell>
        <mxCell id="jAzHd7rq2cDCX4-PtLzW-65" style="edgeStyle=orthogonalEdgeStyle;rounded=0;orthogonalLoop=1;jettySize=auto;html=1;entryX=1;entryY=0.5;entryDx=0;entryDy=0;shadow=0;" parent="1" source="jAzHd7rq2cDCX4-PtLzW-47" target="jAzHd7rq2cDCX4-PtLzW-30" edge="1">
          <mxGeometry relative="1" as="geometry">
            <Array as="points">
              <mxPoint x="-180" y="200" />
              <mxPoint x="-180" y="285" />
            </Array>
          </mxGeometry>
        </mxCell>
        <mxCell id="jAzHd7rq2cDCX4-PtLzW-47" value="&lt;div&gt;&lt;b&gt;interbotix_ros_toolboxes&lt;/b&gt;&lt;/div&gt;&lt;div&gt;&lt;b&gt;&lt;br&gt;&lt;/b&gt;&lt;/div&gt;" style="rounded=1;whiteSpace=wrap;html=1;verticalAlign=top;shadow=1;" parent="1" vertex="1">
          <mxGeometry x="70" y="160" width="210" height="80" as="geometry" />
        </mxCell>
        <mxCell id="jAzHd7rq2cDCX4-PtLzW-48" value="&lt;b&gt;interbotix_xs_modules ARM api&lt;br&gt;&lt;/b&gt;" style="rounded=1;whiteSpace=wrap;html=1;verticalAlign=middle;shadow=1;" parent="1" vertex="1">
          <mxGeometry x="97.5" y="185" width="155" height="40" as="geometry" />
        </mxCell>
        <mxCell id="jAzHd7rq2cDCX4-PtLzW-86" style="edgeStyle=orthogonalEdgeStyle;rounded=0;orthogonalLoop=1;jettySize=auto;html=1;entryX=0.5;entryY=1;entryDx=0;entryDy=0;strokeColor=#0000CC;strokeWidth=3;" parent="1" source="jAzHd7rq2cDCX4-PtLzW-51" target="jAzHd7rq2cDCX4-PtLzW-76" edge="1">
          <mxGeometry relative="1" as="geometry">
            <Array as="points">
              <mxPoint x="435" y="510" />
            </Array>
          </mxGeometry>
        </mxCell>
        <mxCell id="jAzHd7rq2cDCX4-PtLzW-51" value="Camera 3" style="rounded=1;whiteSpace=wrap;html=1;shadow=1;" parent="1" vertex="1">
          <mxGeometry x="469.99999999999994" y="490" width="80" height="40" as="geometry" />
        </mxCell>
        <mxCell id="jAzHd7rq2cDCX4-PtLzW-81" style="edgeStyle=orthogonalEdgeStyle;rounded=0;orthogonalLoop=1;jettySize=auto;html=1;exitX=0;exitY=0.5;exitDx=0;exitDy=0;entryX=0.5;entryY=1;entryDx=0;entryDy=0;strokeColor=#0000CC;strokeWidth=3;" parent="1" source="jAzHd7rq2cDCX4-PtLzW-52" target="jAzHd7rq2cDCX4-PtLzW-76" edge="1">
          <mxGeometry relative="1" as="geometry">
            <Array as="points">
              <mxPoint x="435" y="410" />
            </Array>
          </mxGeometry>
        </mxCell>
        <mxCell id="jAzHd7rq2cDCX4-PtLzW-52" value="Camera 1" style="rounded=1;whiteSpace=wrap;html=1;shadow=1;" parent="1" vertex="1">
          <mxGeometry x="469.99999999999994" y="390" width="80" height="40" as="geometry" />
        </mxCell>
        <mxCell id="jAzHd7rq2cDCX4-PtLzW-85" style="edgeStyle=orthogonalEdgeStyle;rounded=0;orthogonalLoop=1;jettySize=auto;html=1;entryX=0.5;entryY=1;entryDx=0;entryDy=0;strokeWidth=3;strokeColor=#0000CC;" parent="1" source="jAzHd7rq2cDCX4-PtLzW-53" target="jAzHd7rq2cDCX4-PtLzW-76" edge="1">
          <mxGeometry relative="1" as="geometry">
            <Array as="points">
              <mxPoint x="435" y="460" />
            </Array>
          </mxGeometry>
        </mxCell>
        <mxCell id="jAzHd7rq2cDCX4-PtLzW-53" value="Camera 2" style="rounded=1;whiteSpace=wrap;html=1;shadow=1;" parent="1" vertex="1">
          <mxGeometry x="469.99999999999994" y="440" width="80" height="40" as="geometry" />
        </mxCell>
        <mxCell id="jAzHd7rq2cDCX4-PtLzW-54" value="Camera 4" style="rounded=1;whiteSpace=wrap;html=1;shadow=1;" parent="1" vertex="1">
          <mxGeometry x="469.99999999999994" y="540" width="80" height="40" as="geometry" />
        </mxCell>
        <mxCell id="jAzHd7rq2cDCX4-PtLzW-55" value="Camera 3" style="rounded=1;whiteSpace=wrap;html=1;" parent="1" vertex="1">
          <mxGeometry x="630" y="870" width="80" height="40" as="geometry" />
        </mxCell>
        <mxCell id="jAzHd7rq2cDCX4-PtLzW-56" value="Camera 1" style="rounded=1;whiteSpace=wrap;html=1;" parent="1" vertex="1">
          <mxGeometry x="450" y="870" width="80" height="40" as="geometry" />
        </mxCell>
        <mxCell id="jAzHd7rq2cDCX4-PtLzW-57" value="Camera 2" style="rounded=1;whiteSpace=wrap;html=1;" parent="1" vertex="1">
          <mxGeometry x="540" y="870" width="80" height="40" as="geometry" />
        </mxCell>
        <mxCell id="jAzHd7rq2cDCX4-PtLzW-58" value="Camera 4" style="rounded=1;whiteSpace=wrap;html=1;" parent="1" vertex="1">
          <mxGeometry x="720" y="870" width="80" height="40" as="geometry" />
        </mxCell>
        <mxCell id="jAzHd7rq2cDCX4-PtLzW-63" style="edgeStyle=orthogonalEdgeStyle;rounded=0;orthogonalLoop=1;jettySize=auto;html=1;exitX=0.5;exitY=1;exitDx=0;exitDy=0;entryX=0.5;entryY=0;entryDx=0;entryDy=0;shadow=0;" parent="1" source="jAzHd7rq2cDCX4-PtLzW-60" target="jAzHd7rq2cDCX4-PtLzW-32" edge="1">
          <mxGeometry relative="1" as="geometry" />
        </mxCell>
        <mxCell id="jAzHd7rq2cDCX4-PtLzW-60" value="&lt;b&gt;hawaii_control: student 2&lt;/b&gt;" style="rounded=1;whiteSpace=wrap;html=1;verticalAlign=top;shadow=1;" parent="1" vertex="1">
          <mxGeometry x="-155" y="60" width="170" height="110" as="geometry" />
        </mxCell>
        <mxCell id="jAzHd7rq2cDCX4-PtLzW-61" value="&lt;div&gt;&lt;b&gt;hawaii_control.launch&lt;/b&gt;&lt;/div&gt;&lt;div&gt;&lt;ul&gt;&lt;li style=&quot;text-align: left;&quot;&gt;starts up sdk&lt;/li&gt;&lt;li style=&quot;text-align: left;&quot;&gt;loads URDF&lt;/li&gt;&lt;/ul&gt;&lt;/div&gt;" style="rounded=1;whiteSpace=wrap;html=1;verticalAlign=top;shadow=1;" parent="1" vertex="1">
          <mxGeometry x="-145" y="90" width="150" height="70" as="geometry" />
        </mxCell>
        <mxCell id="jAzHd7rq2cDCX4-PtLzW-41" style="edgeStyle=orthogonalEdgeStyle;rounded=0;orthogonalLoop=1;jettySize=auto;html=1;exitX=0.5;exitY=1;exitDx=0;exitDy=0;strokeColor=#0000CC;shadow=1;strokeWidth=3;" parent="1" source="jAzHd7rq2cDCX4-PtLzW-32" target="jAzHd7rq2cDCX4-PtLzW-37" edge="1">
          <mxGeometry relative="1" as="geometry" />
        </mxCell>
        <mxCell id="jAzHd7rq2cDCX4-PtLzW-88" style="edgeStyle=orthogonalEdgeStyle;rounded=0;orthogonalLoop=1;jettySize=auto;html=1;entryX=0.5;entryY=0;entryDx=0;entryDy=0;exitX=0;exitY=0.5;exitDx=0;exitDy=0;dashed=1;strokeColor=#B3B3B3;" parent="1" source="jAzHd7rq2cDCX4-PtLzW-75" target="jAzHd7rq2cDCX4-PtLzW-47" edge="1">
          <mxGeometry relative="1" as="geometry" />
        </mxCell>
        <mxCell id="jAzHd7rq2cDCX4-PtLzW-75" value="&lt;div&gt;ACT Training&lt;/div&gt;&lt;div&gt;&lt;br&gt;&lt;/div&gt;&lt;div&gt;injest hdf5 file and use to train model&lt;/div&gt;" style="rounded=0;whiteSpace=wrap;html=1;fillColor=#ababab;strokeColor=#36393d;" parent="1" vertex="1">
          <mxGeometry x="270" y="-50" width="330" height="90" as="geometry" />
        </mxCell>
        <mxCell id="jAzHd7rq2cDCX4-PtLzW-77" style="edgeStyle=orthogonalEdgeStyle;rounded=0;orthogonalLoop=1;jettySize=auto;html=1;entryX=0.5;entryY=1;entryDx=0;entryDy=0;dashed=1;strokeColor=#B3B3B3;" parent="1" source="jAzHd7rq2cDCX4-PtLzW-76" target="jAzHd7rq2cDCX4-PtLzW-75" edge="1">
          <mxGeometry relative="1" as="geometry" />
        </mxCell>
        <mxCell id="jAzHd7rq2cDCX4-PtLzW-90" style="edgeStyle=orthogonalEdgeStyle;rounded=0;orthogonalLoop=1;jettySize=auto;html=1;exitX=0;exitY=0.5;exitDx=0;exitDy=0;entryX=1;entryY=0.5;entryDx=0;entryDy=0;" parent="1" source="jAzHd7rq2cDCX4-PtLzW-76" target="jAzHd7rq2cDCX4-PtLzW-47" edge="1">
          <mxGeometry relative="1" as="geometry" />
        </mxCell>
        <mxCell id="jAzHd7rq2cDCX4-PtLzW-76" value="&lt;b&gt;Teleoperate&lt;/b&gt;&lt;br&gt;&lt;ul style=&quot;&quot;&gt;&lt;li style=&quot;text-align: left;&quot;&gt;stream joint states over serial&lt;/li&gt;&lt;li style=&quot;text-align: left;&quot;&gt;Command joints via ARM API set_joint_positions&lt;/li&gt;&lt;li style=&quot;text-align: left;&quot;&gt;Record camera images, joint positions and joint velocities&lt;/li&gt;&lt;li style=&quot;text-align: left;&quot;&gt;Compile data into hdf5 file&lt;/li&gt;&lt;/ul&gt;&lt;div style=&quot;text-align: left;&quot;&gt;&lt;br&gt;&lt;/div&gt;&lt;div&gt;&lt;/div&gt;" style="rounded=1;whiteSpace=wrap;html=1;verticalAlign=top;" parent="1" vertex="1">
          <mxGeometry x="310" y="135" width="250" height="130" as="geometry" />
        </mxCell>
        <mxCell id="jAzHd7rq2cDCX4-PtLzW-87" style="edgeStyle=orthogonalEdgeStyle;rounded=0;orthogonalLoop=1;jettySize=auto;html=1;entryX=0.5;entryY=1;entryDx=0;entryDy=0;strokeWidth=3;strokeColor=#0000CC;" parent="1" source="jAzHd7rq2cDCX4-PtLzW-54" target="jAzHd7rq2cDCX4-PtLzW-76" edge="1">
          <mxGeometry relative="1" as="geometry">
            <Array as="points">
              <mxPoint x="435" y="560" />
            </Array>
          </mxGeometry>
        </mxCell>
        <mxCell id="jAzHd7rq2cDCX4-PtLzW-91" value="" style="endArrow=none;html=1;rounded=0;strokeWidth=3;strokeColor=#0000CC;" parent="1" edge="1">
          <mxGeometry width="50" height="50" relative="1" as="geometry">
            <mxPoint x="670" y="-75.59" as="sourcePoint" />
            <mxPoint x="730" y="-75.59" as="targetPoint" />
          </mxGeometry>
        </mxCell>
        <mxCell id="jAzHd7rq2cDCX4-PtLzW-92" value="" style="endArrow=none;html=1;rounded=0;strokeWidth=3;strokeColor=#FF8000;" parent="1" edge="1">
          <mxGeometry width="50" height="50" relative="1" as="geometry">
            <mxPoint x="670" y="-35.59" as="sourcePoint" />
            <mxPoint x="730" y="-35.59" as="targetPoint" />
          </mxGeometry>
        </mxCell>
        <mxCell id="jAzHd7rq2cDCX4-PtLzW-93" value="&lt;font style=&quot;font-size: 17px;&quot;&gt;&lt;b&gt;Serial&lt;/b&gt;&lt;/font&gt;" style="text;html=1;strokeColor=none;fillColor=none;align=center;verticalAlign=middle;whiteSpace=wrap;rounded=0;" parent="1" vertex="1">
          <mxGeometry x="740" y="-90" width="60" height="30" as="geometry" />
        </mxCell>
        <mxCell id="jAzHd7rq2cDCX4-PtLzW-94" value="&lt;font style=&quot;font-size: 17px;&quot;&gt;&lt;b&gt;I&lt;sup&gt;2&lt;/sup&gt;C&lt;/b&gt;&lt;/font&gt;" style="text;html=1;strokeColor=none;fillColor=none;align=center;verticalAlign=middle;whiteSpace=wrap;rounded=0;" parent="1" vertex="1">
          <mxGeometry x="740" y="-50" width="60" height="30" as="geometry" />
        </mxCell>
      </root>
    </mxGraphModel>
  </diagram>
</mxfile>
